<svg width="620" height="246" xmlns="http://www.w3.org/2000/svg" xmlns:xlink="http://www.w3.org/1999/xlink" xml:space="preserve" overflow="hidden"><g transform="translate(-330 -287)"><path d="M2043.29 700.699C2043.07 700.905 2042.85 701.103 2042.62 701.302 2041.99 701.839 2041.22 702.455 2040.32 703.157 2023.7 716.279 2016.38 726.168 2018.15 732.428 2018.38 733.263 2018.93 733.865 2019.8 734.236 2020.66 734.607 2021.67 734.634 2022.84 734.316 2027.14 733.137 2030.84 729.971 2033.94 724.817 2036.65 720.3 2039.55 713.04 2042.6 703.024 2042.83 702.249 2043.07 701.474 2043.29 700.699ZM2053 657.739C2049.6 658.559 2045.73 662.95 2041.46 670.938 2037.17 678.933 2035.57 684.875 2036.66 688.723 2037.15 690.459 2038.18 691.128 2039.75 690.724 2041.85 690.187 2044.87 686.021 2048.83 678.238 2053.94 668.196 2056.13 661.8 2055.33 659.006 2055.01 657.864 2054.23 657.44 2053 657.739ZM1933.54 691.327C1930.23 692.393 1926.51 697.136 1922.42 705.535 1918.32 713.967 1916.84 720.114 1917.93 723.969 1918.42 725.705 1919.36 726.341 1920.76 725.87 1923.66 724.89 1927.59 718.081 1932.64 705.442 1935.3 698.686 1936.36 694.387 1935.85 692.572 1935.51 691.36 1934.73 690.942 1933.54 691.327ZM1888.65 706.548C1885.38 707.721 1881.71 712.616 1877.7 721.214 1873.67 729.851 1872.22 736.104 1873.31 739.953 1873.8 741.695 1874.74 742.304 1876.11 741.788 1878.97 740.708 1882.85 733.706 1887.81 720.81 1890.42 713.921 1891.45 709.556 1890.93 707.741 1890.59 706.528 1889.83 706.124 1888.65 706.548ZM1857.38 718.081C1855.55 718.789 1853.34 721.101 1850.73 725.042 1848.1 728.997 1845.67 733.176 1843.38 737.581 1847.59 734.415 1851.3 730.871 1854.49 726.957 1857.65 723.082 1858.97 720.214 1858.46 718.379 1858.34 717.948 1857.97 717.849 1857.38 718.081ZM1968.51 663.274C1971.22 662.479 1972.9 663.268 1973.58 665.632 1974.03 667.242 1973.71 668.951 1972.61 670.753 1971.51 672.554 1970.01 673.74 1968.14 674.296 1965.38 675.111 1963.66 674.303 1962.97 671.859 1962.53 670.315 1962.9 668.626 1964.07 666.805 1965.25 664.977 1966.72 663.797 1968.51 663.274ZM1904.78 668.216C1906.78 667.957 1908.39 667.619 1909.62 667.209 1910.06 667.063 1911.78 666.407 1914.77 665.261 1905.59 694.016 1900 712.285 1897.72 719.842 1895.48 727.387 1894.57 731.878 1894.98 733.322 1895.24 734.243 1895.78 734.554 1896.58 734.269 1899.9 733.084 1904.31 725.162 1909.9 710.542 1910.09 709.94 1910.39 709.503 1910.82 709.218 1910.97 709.145 1911.12 709.072 1911.28 708.999 1911.32 708.913 1911.36 708.827 1911.39 708.741 1912.87 705.886 1914.99 702.912 1917.8 699.825 1923.64 693.367 1928.66 689.465 1932.79 688.134 1936.28 687.008 1938.47 687.955 1939.32 690.962 1939.37 691.221 1939.42 691.472 1939.47 691.724 1942.95 679.052 1946.42 666.381 1949.93 653.76 1951.95 653.554 1953.58 653.265 1954.81 652.894 1955.26 652.759 1956.99 652.155 1960.01 651.093 1950.69 679.39 1944.99 697.348 1942.67 704.773 1940.37 712.185 1939.45 716.617 1939.86 718.061 1940.12 718.981 1940.65 719.306 1941.47 719.048 1944.83 717.968 1949.3 710.238 1954.98 695.897 1955.17 695.307 1955.48 694.877 1955.91 694.612 1956.04 694.552 1956.17 694.493 1956.29 694.44 1957.84 689.558 1959.4 684.676 1960.96 679.794 1962.85 679.503 1964.13 679.264 1964.82 679.059 1965.91 678.734 1967.93 677.986 1970.88 676.833 1968.17 685.835 1965.48 694.844 1962.78 703.885 1961.67 707.29 1961.32 709.721 1961.73 711.172 1962 712.093 1962.66 712.391 1963.73 712.066 1967.03 711.053 1971.59 703.455 1977.5 689.306 1977.71 688.412 1978.19 687.856 1978.94 687.637 1979.22 687.557 1979.49 687.518 1979.72 687.518 1979.75 687.524 1979.77 687.531 1979.8 687.538 1980.22 686.524 1980.64 685.511 1981.06 684.497 1984.3 676.986 1986.93 672.574 1989.07 671.269 1989.34 671.11 1989.6 670.991 1989.84 670.918 1991.66 670.401 1993.36 670.719 1994.98 671.773 1996.63 672.846 1997.72 674.31 1998.24 676.151 1998.43 676.807 1998.52 677.509 1998.51 678.258 1998.51 678.264 1998.51 678.271 1998.51 678.271 1998.61 678.012 1998.71 677.761 1998.8 677.502 1999.8 675.005 2000.86 672.972 2001.95 671.388 2004.13 668.229 2006.54 666.288 2009.19 665.573 2011.5 664.943 2013.64 665.235 2015.61 666.427 2017.57 667.613 2018.87 669.335 2019.5 671.581 2020.27 674.31 2019.39 678.893 2016.85 685.345 2014.46 691.446 2013.42 695.115 2013.77 696.347 2013.99 697.122 2014.5 697.394 2015.33 697.169 2018.66 696.268 2023.15 688.909 2028.86 675.111 2029.02 674.449 2029.33 673.978 2029.8 673.7 2029.84 673.687 2029.88 673.674 2029.91 673.654 2030.06 673.369 2030.21 673.084 2030.35 672.799 2032.07 669.938 2034.53 666.99 2037.73 663.97 2043.36 658.657 2048.17 655.541 2052.09 654.597 2055.16 653.856 2057.23 654.685 2058.31 657.068 2058.37 657.222 2058.43 657.378 2058.48 657.532 2058.47 656.209 2058.46 654.887 2058.45 653.564 2060.2 653.43 2061.46 653.273 2062.25 653.089 2063.33 652.834 2065.41 652.21 2068.45 651.233 2068.42 652.877 2067 656.995 2064.25 663.612 2061.49 671.978 2058.73 680.377 2056 688.776 2059.39 685.166 2062.42 681.682 2065.04 678.317 2067.65 674.972 2070.38 670.441 2073.2 664.725 2073.8 663.46 2074.48 662.744 2075.23 662.572 2076.27 662.585 2076.9 662.969 2077.11 663.725 2077.36 664.592 2075.71 667.957 2072.18 673.846 2068.33 680.198 2062.88 686.259 2055.88 692.121 2055.33 693.976 2054.76 695.831 2054.21 697.685 2051.01 708.655 2046.44 717.676 2040.57 724.784 2034.85 731.732 2029.33 735.932 2023.97 737.396 2021.8 737.985 2019.82 737.899 2018.03 737.111 2016.25 736.329 2015.11 735.064 2014.61 733.302 2012.3 725.148 2020.01 714.172 2038.02 700.805 2041.77 698.003 2044.08 696.248 2044.93 695.526 2046.03 692.247 2047.13 688.968 2048.23 685.696 2048.14 685.921 2048.05 686.14 2047.95 686.359 2047.34 687.73 2046.73 688.849 2046.12 689.697 2044.49 691.962 2042.46 693.406 2040.04 694.029 2037.38 694.711 2034.89 694.301 2032.57 692.804 2030.23 691.3 2028.68 689.18 2027.9 686.431 2027.86 686.193 2027.81 685.954 2027.76 685.716 2027.25 686.696 2026.72 687.67 2026.21 688.65 2022.48 695.625 2018.95 699.573 2015.61 700.481 2013.3 701.11 2011.18 700.865 2009.22 699.739 2007.26 698.619 2005.96 696.957 2005.34 694.758 2004.81 692.903 2004.75 691.088 2005.16 689.306 2005.57 687.524 2006.81 684.239 2008.89 679.47 2011 673.833 2011.93 670.527 2011.65 669.534 2011.44 668.765 2010.84 668.514 2009.88 668.772 2005.4 669.984 2000.6 678.198 1995.24 693.221 1993.82 697.222 1992.51 701.772 1991 706.82 1988.29 707.436 1986.77 707.8 1986.43 707.9 1985.07 708.297 1983.27 708.9 1981.03 709.721 1982.91 703.548 1984.78 697.374 1986.66 691.201 1989.12 684.245 1990.36 679.39 1990.7 676.681 1990.82 675.773 1990.79 675.098 1990.67 674.667 1990.56 674.303 1990.43 674.151 1990.23 674.21 1990.13 674.237 1990.03 674.283 1989.92 674.343 1988.27 675.283 1985.7 680.178 1982.05 689.061 1981.68 689.955 1981.19 690.558 1980.58 690.863 1980.53 690.869 1980.48 690.876 1980.44 690.883 1979.91 692.108 1979.38 693.333 1978.85 694.559 1973.5 707.052 1968.54 714.007 1963.9 715.431 1961.56 716.146 1959.4 716.014 1957.41 715.014 1955.42 714.02 1954.12 712.437 1953.5 710.251 1953.33 709.655 1953.24 708.959 1953.22 708.164 1953.22 708.131 1953.23 708.098 1953.23 708.058 1952.95 708.622 1952.68 709.185 1952.4 709.748 1948.61 717.094 1945.14 721.3 1941.96 722.32 1939.64 723.068 1937.55 722.916 1935.68 721.856 1933.81 720.796 1932.55 719.114 1931.89 716.809 1931.26 714.596 1931.47 712.397 1932.49 710.205 1929.1 721.452 1925.42 727.738 1921.39 729.103 1918.76 729.99 1916.33 729.752 1914.07 728.401 1911.8 727.043 1910.26 724.943 1909.44 722.081 1909.36 721.638 1909.28 721.187 1909.19 720.737 1908.58 722.022 1907.98 723.3 1907.37 724.579 1903.64 732.083 1900.21 736.429 1897.08 737.555 1894.79 738.376 1892.72 738.29 1890.86 737.27 1889 736.257 1887.74 734.607 1887.09 732.302 1886.46 730.09 1886.66 727.864 1887.66 725.619 1884.34 737.058 1880.73 743.523 1876.75 745.027 1874.16 746.007 1871.76 745.848 1869.51 744.556 1867.27 743.258 1865.73 741.198 1864.92 738.337 1864.81 737.767 1864.7 737.197 1864.59 736.628 1864.55 736.714 1864.51 736.793 1864.47 736.879 1859.11 747.511 1853.63 754.029 1848.01 756.334 1844.78 757.659 1841.82 757.705 1839.07 756.506 1836.33 755.3 1834.49 753.134 1833.6 749.981 1831.56 742.794 1835.02 734.256 1844.18 724.592 1848.96 719.551 1853.17 716.345 1856.77 714.947 1858.56 714.252 1860.28 714.146 1861.91 714.663 1863.52 715.173 1864.53 716.186 1864.95 717.676 1865.85 720.823 1864.52 724.175 1860.95 727.818 1857.4 731.434 1851.46 735.786 1843.23 740.96 1841.74 745.351 1841.33 748.723 1842 751.074 1842.69 753.525 1844.49 754.135 1847.42 752.936 1853.39 750.485 1859.35 741.86 1865.32 727.096 1865.57 726.5 1865.86 726.009 1866.19 725.632 1866.33 725.499 1866.48 725.367 1866.62 725.234 1866.68 725.089 1866.74 724.943 1866.8 724.804 1868.25 721.876 1870.34 718.803 1873.1 715.597 1878.85 708.906 1883.82 704.813 1887.89 703.356 1891.35 702.117 1893.52 703.011 1894.37 706.018 1894.42 706.27 1894.47 706.528 1894.52 706.78 1897.94 693.903 1901.33 681.026 1904.78 668.216ZM1895.31 639.132C1899.17 637.827 1901.37 638.089 1901.88 639.898 1902.36 641.595 1901.51 642.808 1899.31 643.546 1898.96 643.665 1898.6 643.784 1898.25 643.902 1896.92 644.188 1895.33 644.641 1893.5 645.265 1884.19 648.436 1873.98 656.222 1862.97 668.679 1856.68 675.813 1851.63 681.974 1847.72 687.173 1843.94 695.281 1837.77 708.84 1829.34 727.924 1819.01 751.266 1810.62 767.939 1803.96 777.795 1801.61 781.299 1800.1 783.227 1799.38 783.591 1798.58 784.002 1797.97 783.836 1797.56 783.108 1797.42 782.664 1798.17 781.127 1799.89 778.537 1802.68 772.046 1804.78 760.633 1806.19 744.325 1807.49 729.566 1808.77 718.703 1810 711.642 1810.19 710.655 1810.39 709.681 1810.59 708.701 1810.38 709.205 1810.16 709.708 1809.96 710.211 1808.24 714.411 1806.25 719.366 1803.97 725.089 1794.15 752.247 1784.9 773.165 1776.43 788.069 1771.62 796.475 1768.67 801.125 1767.37 802.006 1766.63 802.165 1766.07 802.052 1765.77 801.575 1765.6 800.979 1765.8 800.224 1766.26 799.263 1771.45 787.811 1775.91 773.635 1779.05 756.473 1782.15 739.542 1782.71 727.202 1780.5 719.392 1779.04 714.225 1776.6 710.86 1773.14 709.211 1769.73 707.588 1765.85 707.946 1761.45 710.417 1751.82 715.835 1743.51 727.195 1738.2 744.748 1732.73 762.799 1733.45 779.266 1736.49 789.977 1737.7 794.276 1739.27 795.938 1741.43 796.263 1743.9 796.634 1746.29 795.21 1749.51 792.269 1756.64 785.79 1763.67 774.629 1769.38 757.625 1770.8 748.696 1770.78 741.403 1769.18 735.76 1768.48 733.276 1767.29 731.686 1765.67 730.918 1764.06 730.149 1762.31 730.328 1760.46 731.421 1759.9 731.752 1759.38 732.137 1758.89 732.58 1758.46 733.044 1758.01 733.488 1757.59 733.951 1757.87 733.799 1758.16 733.647 1758.45 733.494 1760.44 732.627 1761.75 733.388 1762.42 735.72 1762.83 737.191 1762.65 738.8 1761.83 740.516 1760.97 742.291 1759.69 743.675 1758.11 744.662 1755.02 746.603 1753.09 745.967 1752.17 742.702 1751.51 740.377 1751.86 737.74 1753.33 734.819 1754.81 731.858 1756.95 729.56 1759.52 728.043 1762.46 726.294 1765.24 725.93 1767.68 727.056 1770.14 728.189 1771.82 730.408 1772.76 733.766 1774.82 741.019 1773.6 751.054 1769.51 764.004 1764.81 778.709 1757.9 788.718 1750.34 795.62 1745.97 799.608 1742.5 802.198 1739.64 801.946 1738.07 801.807 1737 798.369 1735.36 792.587 1733.85 787.234 1731.47 780.345 1730.64 771.582 1729.81 762.673 1731.59 752.432 1735.4 742.775 1741.01 724.638 1750.25 712.795 1760.79 706.88 1767.13 703.322 1773.29 702.945 1778.99 705.535 1784.76 708.158 1788.67 712.921 1790.63 719.829 1792.71 727.175 1791.99 737.601 1788.66 751.074 1788.24 752.763 1787.75 754.459 1787.27 756.148 1786.89 757.453 1786.46 758.745 1786.08 760.043 1786.12 759.931 1786.17 759.818 1786.22 759.712 1791.52 747.021 1797.8 731.269 1805.05 712.53 1808.06 704.747 1811.23 697.48 1814.6 690.777 1817.97 684.053 1820.36 680.45 1821.77 679.86 1822.88 679.397 1823.58 679.675 1823.87 680.682 1823.97 681.059 1823.9 681.523 1823.64 682.073 1821.98 686.253 1820.6 690.631 1819.42 695.188 1819.22 698.904 1818.75 706.608 1818.06 718.306 1817.26 731.236 1816.09 741.41 1814.53 748.763 1814.11 750.664 1813.67 752.565 1813.14 754.433 1812.94 755.035 1812.72 755.638 1812.53 756.241 1812.59 756.122 1812.65 756.003 1812.71 755.883 1816.04 748.69 1822.1 734.726 1831.22 714.345 1837.04 701.329 1842.61 690.717 1847.86 682.556 1853.12 674.382 1859.42 666.526 1866.76 659.071 1876.86 648.772 1886.4 642.143 1895.31 639.132Z" fill="#2F5597" fill-rule="evenodd" transform="matrix(1 0 0 1.00248 -1376.32 -349.34)"/><path d="M2159.11 784.254C2156.45 784.757 2152.7 789.944 2147.96 799.84 2144.27 807.57 2142.75 812.571 2143.41 814.883 2143.72 816.029 2144.43 816.486 2145.52 816.254 2149.09 815.512 2153.04 811.299 2157.39 803.622 2161.73 795.958 2163.34 790.202 2162.24 786.294 2161.77 784.631 2160.72 783.949 2159.11 784.254ZM2242.08 772.403C2238.65 772.668 2234.98 776.186 2231.24 782.995 2227.49 789.811 2226.2 795.369 2227.38 799.568 2227.9 801.383 2229.15 802.171 2231.13 801.946 2235.4 801.469 2239.3 798.111 2242.86 791.798 2241.31 790.964 2240.32 789.752 2239.87 788.168 2239.28 786.075 2239.63 783.836 2240.94 781.485 2242.24 779.147 2243.86 777.881 2246 777.729 2246.36 777.703 2246.67 777.703 2246.94 777.736 2247.13 777.789 2247.33 777.835 2247.53 777.888 2247.44 777.729 2247.35 777.57 2247.27 777.411 2247.02 776.875 2246.79 776.252 2246.59 775.543 2245.94 773.278 2244.45 772.225 2242.08 772.403ZM2128.45 790.341C2126.51 790.758 2124.16 792.653 2121.38 796.038 2118.58 799.436 2115.94 803.072 2113.48 806.954 2117.94 804.549 2121.9 801.701 2125.28 798.429 2128.65 795.17 2130.1 792.62 2129.58 790.785 2129.46 790.354 2129.08 790.202 2128.45 790.341ZM2062.39 806.132C2060.47 806.636 2058.14 808.656 2055.39 812.187 2052.64 815.737 2050.03 819.526 2047.6 823.547 2052.03 820.93 2055.92 817.897 2059.25 814.452 2062.6 811.001 2064.02 808.371 2063.5 806.536 2063.38 806.106 2063.01 805.974 2062.39 806.132ZM2183.27 765.236C2185.18 765.243 2186.68 765.163 2187.78 764.991 2188.92 764.812 2190.59 764.395 2192.82 763.753 2191.35 767.753 2189.9 771.754 2188.43 775.775 2191.27 775.325 2194.09 774.887 2196.97 774.457 2196.91 775.563 2196.83 776.663 2196.77 777.769 2193.92 778.199 2191.08 778.637 2188.22 779.094 2185.46 786.824 2182.67 794.534 2179.94 802.304 2178.96 805 2178.66 807 2179.04 808.332 2179.3 809.252 2179.98 809.617 2181.09 809.418 2184.6 808.802 2189.26 801.992 2195.15 789.01 2195.43 788.413 2195.79 788.009 2196.24 787.804 2196.39 787.758 2196.54 787.711 2196.68 787.672 2198.32 783.194 2200.01 778.716 2201.67 774.251 2203.62 774.245 2204.93 774.199 2205.63 774.106 2206.75 773.947 2208.89 773.523 2211.97 772.847 2209.08 781.107 2206.17 789.334 2203.31 797.647 2202.12 800.78 2201.72 803.059 2202.13 804.51 2202.4 805.43 2203.07 805.808 2204.19 805.642 2207.65 805.119 2212.43 798.488 2218.67 785.79 2218.9 784.969 2219.39 784.512 2220.16 784.419 2220.41 784.419 2220.65 784.419 2220.9 784.426 2221.28 783.909 2221.66 783.393 2222.04 782.863 2223.39 781.478 2225.05 780.16 2226.97 778.868 2232.25 772.867 2237.13 769.688 2241.37 769.363 2246.19 768.992 2249.14 770.973 2250.33 775.172 2251.61 779.71 2250.33 784.909 2246.6 790.937 2246.74 790.811 2247.22 790.712 2248.08 790.646 2249.84 790.52 2251.73 789.646 2253.78 788.042 2255.79 786.466 2257.26 784.565 2258.3 782.333 2258.82 781.491 2259.44 781.074 2260.12 781.054 2260.4 781.041 2260.66 781.061 2260.89 781.114 2260.9 781.12 2260.91 781.12 2260.93 781.127 2261.37 780.292 2261.81 779.465 2262.26 778.637 2266.06 771.781 2269.25 768.31 2271.68 768.369 2273.58 768.416 2275.29 769.237 2276.94 770.675 2278.67 772.191 2279.84 773.841 2280.36 775.689 2280.55 776.345 2280.62 777.007 2280.61 777.689 2280.61 777.696 2280.61 777.703 2280.61 777.703 2280.71 777.497 2280.83 777.298 2280.94 777.093 2281.99 775.139 2283.11 773.649 2284.24 772.622 2286.41 770.635 2288.74 769.694 2291.68 770.284 2294.09 770.761 2296.13 772.119 2297.99 774.106 2299.83 776.066 2300.93 778.305 2301.56 780.551 2302.34 783.273 2301.89 786.791 2299.43 791.003 2296.89 795.335 2295.52 798.064 2295.87 799.297 2296.09 800.072 2296.57 800.502 2297.52 800.654 2301.2 801.237 2306.33 797.753 2310.38 790.871 2310.45 790.434 2310.63 790.48 2310.94 791.076 2311.41 791.99 2311.65 793.004 2311.92 793.991 2312.23 795.051 2311.73 796.031 2308.62 798.979 2304.9 802.509 2301.47 804.258 2297.7 803.688 2295.52 803.364 2293.48 802.37 2291.5 800.708 2289.51 799.025 2288.18 797.091 2287.56 794.892 2287.04 793.037 2287 791.374 2287.43 789.897 2287.86 788.433 2288.87 785.764 2291 782.379 2293.21 778.18 2294.49 775.854 2294.21 774.861 2293.99 774.093 2293.38 773.589 2292.35 773.384 2286.48 772.231 2279.78 781.809 2272.25 801.853 2269.51 801.747 2267.93 801.728 2267.58 801.734 2266.14 801.781 2264.21 801.926 2261.85 802.191 2263.87 796.819 2265.9 791.5 2267.92 786.261 2271.43 778.471 2272.99 773.794 2272.49 772.046 2272.39 771.688 2272.24 771.509 2272.04 771.503 2270.3 771.463 2267.33 775.364 2263.23 783.128 2262.84 783.869 2262.32 784.313 2261.67 784.452 2261.64 784.452 2261.62 784.446 2261.59 784.446 2261.29 784.896 2260.98 785.333 2260.68 785.784 2260.28 786.327 2259.77 786.897 2259.21 787.552 2256.1 791.202 2252.78 793.216 2249.04 793.494 2247.45 793.613 2246.36 793.468 2245.73 793.07 2242.11 800.548 2237.5 804.596 2231.95 805.218 2228.85 805.569 2226.01 804.828 2223.34 803.013 2220.66 801.191 2218.91 798.846 2218.1 795.971 2218.06 795.6 2218.03 795.229 2217.99 794.865 2217.98 794.892 2217.96 794.925 2217.94 794.958 2213.09 803.622 2208.58 808.252 2204.33 808.901 2201.92 809.266 2199.7 808.842 2197.65 807.616 2195.61 806.384 2194.27 804.688 2193.65 802.509 2193.49 801.913 2193.4 801.231 2193.38 800.462 2193.39 800.396 2193.4 800.337 2193.4 800.27 2193.09 800.807 2192.77 801.343 2192.46 801.886 2188.45 808.471 2184.72 812.081 2181.23 812.697 2178.82 813.121 2176.6 812.737 2174.56 811.524 2172.52 810.312 2171.19 808.61 2170.56 806.397 2169.85 803.933 2170.23 800.708 2171.63 796.74 2173.87 791.394 2176.15 786.055 2178.41 780.716 2176.18 781.094 2173.94 781.485 2171.72 781.882 2171.85 780.756 2171.97 779.637 2172.09 778.511 2174.28 778.126 2176.45 777.749 2178.61 777.385 2180.16 773.337 2181.71 769.297 2183.27 765.236ZM2209.64 759.513C2212.43 759.162 2214.15 760.182 2214.82 762.547 2215.27 764.157 2214.94 765.746 2213.8 767.29 2212.64 768.846 2211.1 769.754 2209.15 770.012 2206.25 770.396 2204.48 769.376 2203.79 766.932 2203.35 765.389 2203.75 763.839 2204.99 762.242 2206.23 760.646 2207.8 759.745 2209.64 759.513ZM2149.35 768.032C2151.14 768.038 2152.53 767.952 2153.53 767.76 2154.61 767.555 2156.44 767.031 2159.08 766.19 2156.43 773.119 2153.76 780.034 2151.12 787.009 2151.12 787.003 2151.12 787.003 2151.12 786.996 2151.55 786.221 2152 785.565 2152.44 785.015 2154.2 782.796 2156.29 781.472 2158.7 781.014 2161.45 780.498 2164.03 781.061 2166.39 782.717 2168.74 784.373 2170.31 786.592 2171.1 789.374 2172.94 795.879 2169.97 802.562 2162.27 809.577 2156.09 815.214 2150.87 818.479 2146.52 819.38 2142.91 820.129 2140.67 819.016 2139.82 816.009 2139.79 815.737 2139.76 815.466 2139.72 815.187 2135.6 828.462 2131.46 841.749 2127.38 855.09 2125.2 855.269 2123.71 855.461 2122.9 855.646 2121.65 855.938 2119.88 856.587 2117.6 857.6 2122.76 842.703 2127.98 827.879 2133.19 813.114 2133.18 813.141 2133.16 813.167 2133.14 813.194 2128.2 820.281 2123.16 824.434 2118.08 825.6 2114.68 826.382 2111.53 825.984 2108.66 824.408 2105.79 822.831 2103.9 820.467 2103.01 817.32 2102.9 816.724 2102.79 816.128 2102.69 815.532 2102.47 815.903 2102.24 816.274 2102.03 816.645 2101.53 817.486 2100.99 818.373 2100.42 819.314 2095.42 827.488 2090.39 832.218 2085.37 833.489 2081.99 834.337 2078.8 833.966 2075.79 832.35 2072.79 830.734 2070.85 828.389 2069.99 825.315 2069.94 825.057 2069.9 824.805 2069.85 824.547 2069.75 824.739 2069.65 824.925 2069.55 825.117 2063.88 834.913 2058.1 840.603 2052.21 842.22 2048.86 843.14 2045.75 842.862 2042.9 841.378 2040.1 839.928 2038.3 837.543 2037.41 834.397 2035.38 827.21 2038.99 819.413 2048.6 811.041 2053.62 806.676 2058.02 804.019 2061.79 803.032 2063.65 802.542 2065.41 802.635 2067.08 803.304 2068.75 803.966 2069.79 805.046 2070.21 806.536 2071.1 809.683 2069.69 812.816 2065.98 815.956 2062.26 819.115 2056.07 822.686 2047.42 826.799 2045.83 830.879 2045.38 834.099 2046.05 836.45 2046.74 838.894 2048.6 839.696 2051.64 838.868 2057.9 837.152 2064.17 829.442 2070.49 815.724 2070.61 815.446 2070.75 815.194 2070.91 814.975 2071.03 814.83 2071.15 814.684 2071.27 814.545 2071.38 814.28 2071.48 814.015 2071.58 813.75 2073.62 809.444 2076.84 805.391 2081.21 801.608 2084.96 798.31 2088.26 796.336 2091.09 795.653 2095.2 794.66 2097.83 796.203 2098.97 800.25 2099.77 803.059 2099.45 806.139 2098.05 809.517 2096.65 812.909 2094.71 814.889 2092.24 815.492 2089.43 816.181 2087.68 815.307 2086.98 812.869 2086.29 810.411 2087.89 807.689 2091.77 804.735 2094.02 803.013 2094.92 801.323 2094.45 799.674 2094.19 798.753 2093.45 798.449 2092.21 798.747 2089.14 799.489 2085.93 803.417 2082.65 810.557 2079.37 817.691 2078.3 823.255 2079.42 827.203 2080.19 829.952 2082.01 830.966 2084.85 830.244 2090.31 828.866 2096.41 821.255 2103.14 807.424 2103.52 806.715 2103.97 806.225 2104.5 805.947 2104.51 805.94 2104.52 805.94 2104.53 805.934 2105.04 805.086 2105.54 804.238 2106.05 803.384 2108.05 800.502 2110.87 797.581 2114.51 794.633 2119.6 790.507 2124.06 788.069 2127.86 787.248 2129.75 786.844 2131.54 787.003 2133.22 787.731 2134.91 788.46 2135.95 789.573 2136.38 791.063 2137.26 794.203 2135.83 797.237 2132.06 800.197 2128.3 803.158 2122.02 806.437 2113.28 810.16 2111.67 814.141 2111.18 817.307 2111.85 819.659 2112.54 822.103 2114.43 822.964 2117.51 822.262 2123.82 820.811 2130.2 813.445 2136.63 800.144 2137.02 799.343 2137.52 798.787 2138.12 798.482 2138.23 798.442 2138.34 798.402 2138.45 798.363 2142.05 788.215 2145.72 778.12 2149.35 768.032ZM2008.3 781.478C2002.42 788.745 1997.67 799.568 1993.99 813.922 1993.96 814.068 1993.92 814.207 1993.89 814.353 1994.19 814.161 1994.5 813.962 1994.8 813.77 1995.34 813.518 1995.98 813.28 1996.72 813.054 1999.37 812.253 2002.01 811.928 2004.67 812.061 2008.97 810.074 2012.16 807.047 2014.27 802.973 2016.38 798.892 2016.81 794.68 2015.58 790.321 2014.63 786.95 2012.15 784.095 2008.14 781.77 2008.2 781.67 2008.25 781.578 2008.3 781.478ZM1974.98 779.014C1987.59 775.093 1998.71 774.477 2008.28 777.007 2011.12 774.093 2013.99 771.622 2016.99 769.668 2020.6 767.316 2024.43 765.508 2028.55 764.382 2034.59 762.713 2039.96 763.017 2044.61 765.25 2049.27 767.495 2052.34 771.211 2053.81 776.404 2054.38 778.405 2054.7 780.829 2054.78 783.677 2054.86 786.532 2054.26 788.129 2052.98 788.466 2051.68 788.811 2050.88 788.413 2050.56 787.274 2050.48 787.036 2050.48 786.605 2050.53 785.982 2050.85 783.412 2050.6 780.697 2049.78 777.828 2048.54 773.437 2046.08 770.304 2042.4 768.449 2038.71 766.601 2034.43 766.336 2029.59 767.667 2025.4 768.82 2021.5 770.635 2017.85 772.973 2015.52 774.477 2013.3 776.285 2011.07 778.358 2015.42 779.643 2018.64 781.611 2020.96 784.068 2022.54 785.744 2023.62 787.738 2024.25 789.97 2024.9 792.249 2025.05 794.501 2024.61 796.707 2024.15 799.058 2023.2 801.423 2021.55 803.682 2018.28 808.159 2013.75 811.504 2007.95 813.723 2012.72 813.763 2015.76 816.141 2017.09 820.818 2017.91 823.765 2018.03 828.541 2017.4 835.159 2017.01 839.245 2017.09 842.326 2017.68 844.386 2018.23 846.32 2019.46 847.718 2021.39 848.585 2023.31 849.453 2025.39 849.566 2027.63 848.91 2030.05 848.214 2032.12 846.823 2033.87 844.81 2034.57 844.127 2035.12 843.71 2035.55 843.584 2036.75 843.246 2037.5 843.604 2037.81 844.664 2038.13 845.81 2037.13 847.267 2034.75 848.95 2032.32 850.672 2030.14 851.838 2028.22 852.394 2023.78 853.686 2019.62 853.235 2015.77 851.023 2011.94 848.817 2009.39 845.445 2008.11 840.935 2007.2 837.715 2007.19 831.456 2008.13 822.149 2008.28 820.606 2008.17 819.215 2007.81 817.963 2007.42 816.572 2006.57 815.611 2005.25 815.101 2002.96 816.022 2001.6 816.559 2001.15 816.698 1997.35 817.837 1994.85 818.082 1993.64 817.42 1993.51 817.267 1993.39 817.122 1993.27 816.969 1993.01 818.075 1992.75 819.188 1992.49 820.294 1990.11 831.158 1987.44 839.352 1984.42 844.849 1981.38 850.367 1976.55 856.011 1969.96 861.86 1962.16 868.676 1954.79 873.326 1947.74 875.783 1941.9 877.817 1936.67 878.313 1932.02 877.273 1927.33 876.227 1924.46 873.803 1923.36 869.947 1922.74 867.755 1922.96 865.569 1924.01 863.383 1925.07 861.197 1926.68 859.72 1928.8 858.958 1932.19 857.733 1934.37 858.786 1935.31 862.091 1935.74 863.628 1935.58 865.165 1934.82 866.695 1934.06 868.232 1932.86 869.292 1931.22 869.888 1930.1 870.285 1929.13 870.424 1928.33 870.279 1928.31 870.279 1928.31 870.272 1928.29 870.272 1928.31 870.312 1928.33 870.358 1928.35 870.398 1929.46 872.074 1931.37 873.2 1934.04 873.769 1937.63 874.538 1941.86 874.061 1946.72 872.365 1955.48 869.312 1962.59 863.708 1968.12 855.487 1970.58 851.824 1972.55 848.267 1974.04 844.849 1975.69 841.06 1979.09 832.059 1984.29 817.936 1986.93 810.915 1990.33 803.635 1994.55 796.071 1998.73 788.539 2002.43 783.234 2005.63 780.193 1998.41 777.815 1988.6 778.451 1976.24 782.286 1958.9 787.678 1945.47 798.27 1935.92 813.796 1928.11 826.475 1925.4 836.861 1927.65 844.816 1928.74 848.678 1930.96 851.241 1934.31 852.526 1937.68 853.812 1941.71 853.619 1946.46 851.977 1954.48 849.208 1961.86 842.922 1968.59 833.085 1975.3 823.295 1977.75 815.187 1975.93 808.729 1974.61 804.079 1971.26 802.595 1965.87 804.324 1960.03 806.205 1954.51 811.299 1949.38 819.572 1944.23 827.866 1942.41 834.622 1943.88 839.775 1944.18 840.849 1944.81 841.617 1945.77 842.087 1946.73 842.557 1947.68 842.624 1948.63 842.299 1950.22 841.756 1951.17 842.041 1951.48 843.14 1951.78 844.2 1951.1 845.015 1949.42 845.585 1947.01 846.413 1944.73 846.167 1942.61 844.836 1940.49 843.511 1939.06 841.537 1938.32 838.921 1936.57 832.741 1938.55 825.488 1944.32 817.234 1950.07 808.994 1956.87 803.602 1964.7 801.078 1972.8 798.475 1977.8 800.582 1979.7 807.285 1981.85 814.856 1979.26 823.924 1972 834.576 1964.7 845.26 1956.48 852.162 1947.3 855.335 1941.16 857.448 1935.77 857.521 1931.13 855.507 1926.51 853.507 1923.41 849.705 1921.83 844.141 1918.73 833.178 1922.59 820.778 1933.66 807.153 1944.69 793.587 1958.46 784.148 1974.98 779.014Z" fill="#2F5597" fill-rule="evenodd" transform="matrix(1 0 0 1.00248 -1376.32 -349.34)"/></g></svg>